<?xml version="1.0" standalone="no"?>
<!DOCTYPE svg PUBLIC "-//W3C//DTD SVG 20010904//EN"
 "http://www.w3.org/TR/2001/REC-SVG-20010904/DTD/svg10.dtd">
<svg version="1.0" xmlns="http://www.w3.org/2000/svg"
 width="512.000000pt" height="512.000000pt" viewBox="0 0 512.000000 512.000000"
 preserveAspectRatio="xMidYMid meet">

<g transform="translate(0.000000,512.000000) scale(0.100000,-0.100000)"
fill="#000000" stroke="none">
<path d="M2415 5109 c-146 -20 -314 -83 -438 -166 -145 -96 -273 -236 -353
-387 -88 -166 -116 -277 -123 -501 l-6 -170 -300 -5 c-201 -3 -307 -9 -320
-17 -32 -18 -73 -65 -85 -98 -11 -28 -189 -3337 -191 -3546 -1 -93 10 -126 53
-166 60 -56 -60 -53 1908 -53 1968 0 1848 -3 1908 53 43 40 54 74 53 166 -3
216 -180 3519 -191 3546 -12 33 -53 80 -85 98 -13 8 -119 14 -320 17 l-300 5
-6 170 c-6 172 -13 218 -51 335 -89 274 -324 532 -586 641 -172 71 -394 102
-567 78z m286 -555 c128 -37 259 -146 320 -265 42 -84 59 -167 59 -296 l0
-113 -520 0 -520 0 0 109 c0 136 12 197 54 286 60 127 172 227 306 272 80 28
219 31 301 7z m-833 -1056 c87 -58 110 -195 46 -275 -96 -121 -272 -104 -335
32 -45 96 -4 206 96 260 46 25 142 16 193 -17z m1609 -4 c76 -60 102 -157 64
-239 -63 -137 -239 -153 -335 -32 -28 35 -31 46 -31 111 0 62 4 78 27 113 38
58 97 85 175 81 51 -3 69 -9 100 -34z"/>
</g>
</svg>
