<?xml version="1.0" encoding="UTF-8"?>
<!DOCTYPE svg PUBLIC "-//W3C//DTD SVG 1.1//EN" "http://www.w3.org/Graphics/SVG/1.1/DTD/svg11.dtd">
<svg xmlns="http://www.w3.org/2000/svg" version="1.1" width="487px" height="486px" style="shape-rendering:geometricPrecision; text-rendering:geometricPrecision; image-rendering:optimizeQuality; fill-rule:evenodd; clip-rule:evenodd" xmlns:xlink="http://www.w3.org/1999/xlink">
<g><path style="opacity:1" fill="#090909" d="M 189.5,27.5 C 189.821,29.0481 190.821,29.7148 192.5,29.5C 199.082,33.413 204.749,38.413 209.5,44.5C 209.427,46.0269 210.094,47.0269 211.5,47.5C 213.262,48.2623 214.262,49.5956 214.5,51.5C 214.427,53.0269 215.094,54.0269 216.5,54.5C 219.438,57.9468 221.438,61.9468 222.5,66.5C 222.12,68.698 222.787,70.3646 224.5,71.5C 225.486,75.1128 226.319,78.7795 227,82.5C 227.667,128.5 227.667,174.5 227,220.5C 225.167,225 222,228.167 217.5,230C 171.5,230.667 125.5,230.667 79.5,230C 69.1903,228.735 59.857,225.235 51.5,219.5C 51.0269,218.094 50.0269,217.427 48.5,217.5C 46.5956,217.262 45.2623,216.262 44.5,214.5C 44.0269,213.094 43.0269,212.427 41.5,212.5C 35.413,207.749 30.413,202.082 26.5,195.5C 26.7148,193.821 26.0481,192.821 24.5,192.5C 19.4386,183.482 16.272,173.816 15,163.5C 14.3333,137.167 14.3333,110.833 15,84.5C 15.2904,82.0796 15.7904,79.7463 16.5,77.5C 17.9238,75.4855 18.5905,73.1522 18.5,70.5C 20.7695,61.2883 25.1029,53.2883 31.5,46.5C 32.9063,46.0269 33.573,45.0269 33.5,43.5C 34.5,41.8333 35.8333,40.5 37.5,39.5C 40.0892,38.5806 42.0892,36.914 43.5,34.5C 50.2883,28.1029 58.2883,23.7695 67.5,21.5C 70.1522,21.5905 72.4855,20.9238 74.5,19.5C 76.7463,18.7904 79.0796,18.2904 81.5,18C 107.833,17.3333 134.167,17.3333 160.5,18C 170.816,19.272 180.482,22.4386 189.5,27.5 Z M 177.5,56.5 C 178.585,58.5869 180.251,59.9202 182.5,60.5C 189.635,68.1031 194.135,77.1031 196,87.5C 196.5,124.832 196.667,162.165 196.5,199.5C 159.165,199.667 121.832,199.5 84.5,199C 74.1031,197.135 65.1031,192.635 57.5,185.5C 56.9202,183.251 55.5869,181.585 53.5,180.5C 49.6043,173.694 47.1043,166.361 46,158.5C 45.3333,135.5 45.3333,112.5 46,89.5C 50.1667,66.6667 63.6667,53.1667 86.5,49C 109.833,48.3333 133.167,48.3333 156.5,49C 163.947,50.3966 170.947,52.8966 177.5,56.5 Z"/></g>
<g><path style="opacity:1" fill="#090909" d="M 430.5,26.5 C 430.821,28.0481 431.821,28.7148 433.5,28.5C 449.76,38.3469 460.76,52.3469 466.5,70.5C 466.41,73.1522 467.076,75.4855 468.5,77.5C 469.21,79.7463 469.71,82.0796 470,84.5C 470.667,110.833 470.667,137.167 470,163.5C 464.118,198.047 444.285,219.88 410.5,229C 385.873,230.143 361.206,230.643 336.5,230.5C 262.909,251.075 236.576,224.575 257.5,151C 257.667,127.833 257.833,104.667 258,81.5C 258.198,79.6183 258.698,77.9516 259.5,76.5C 260.924,74.4855 261.59,72.1522 261.5,69.5C 262.848,63.1397 265.515,57.4731 269.5,52.5C 271.262,51.7377 272.262,50.4044 272.5,48.5C 273.906,48.0269 274.573,47.0269 274.5,45.5C 277.167,42.1667 280.167,39.1667 283.5,36.5C 285.749,35.9202 287.415,34.5869 288.5,32.5C 291.161,29.4977 294.495,27.4977 298.5,26.5C 300.027,26.573 301.027,25.9063 301.5,24.5C 308.765,21.0243 316.431,18.8577 324.5,18C 350.833,17.3333 377.167,17.3333 403.5,18C 413.07,19.1349 422.07,21.9682 430.5,26.5 Z M 418.5,55.5 C 418.973,56.9063 419.973,57.573 421.5,57.5C 421.833,58.5 422.5,59.1667 423.5,59.5C 424.5,61.1667 425.833,62.5 427.5,63.5C 428.864,65.1911 430.197,66.8577 431.5,68.5C 431.932,69.7095 432.599,70.7095 433.5,71.5C 436.231,77.1961 438.065,83.1961 439,89.5C 439.667,112.5 439.667,135.5 439,158.5C 437.896,166.361 435.396,173.694 431.5,180.5C 429.413,181.585 428.08,183.251 427.5,185.5C 426.5,185.833 425.833,186.5 425.5,187.5C 423.251,188.08 421.585,189.413 420.5,191.5C 414.368,195.268 407.701,197.768 400.5,199C 363.168,199.5 325.835,199.667 288.5,199.5C 288.333,162.165 288.5,124.832 289,87.5C 293.284,65.5489 306.451,52.7156 328.5,49C 351.833,48.3333 375.167,48.3333 398.5,49C 405.684,49.7684 412.351,51.935 418.5,55.5 Z"/></g>
<g><path style="opacity:0.933" fill="#636363" d="M 74.5,19.5 C 72.4855,20.9238 70.1522,21.5905 67.5,21.5C 69.5145,20.0762 71.8478,19.4095 74.5,19.5 Z"/></g>
<g><path style="opacity:0.792" fill="#818181" d="M 301.5,24.5 C 301.027,25.9063 300.027,26.573 298.5,26.5C 298.973,25.0937 299.973,24.427 301.5,24.5 Z"/></g>
<g><path style="opacity:0.957" fill="#767676" d="M 430.5,26.5 C 431.71,26.9321 432.71,27.5987 433.5,28.5C 431.821,28.7148 430.821,28.0481 430.5,26.5 Z"/></g>
<g><path style="opacity:0.945" fill="#7b7b7b" d="M 189.5,27.5 C 190.71,27.9321 191.71,28.5987 192.5,29.5C 190.821,29.7148 189.821,29.0481 189.5,27.5 Z"/></g>
<g><path style="opacity:0.937" fill="#616161" d="M 288.5,32.5 C 287.415,34.5869 285.749,35.9202 283.5,36.5C 284.585,34.4131 286.251,33.0798 288.5,32.5 Z"/></g>
<g><path style="opacity:0.922" fill="#5b5b5b" d="M 43.5,34.5 C 42.0892,36.914 40.0892,38.5806 37.5,39.5C 38.9108,37.086 40.9108,35.4194 43.5,34.5 Z"/></g>
<g><path style="opacity:0.769" fill="#868686" d="M 33.5,43.5 C 33.573,45.0269 32.9063,46.0269 31.5,46.5C 31.427,44.9731 32.0937,43.9731 33.5,43.5 Z"/></g>
<g><path style="opacity:0.808" fill="#7e7e7e" d="M 209.5,44.5 C 210.906,44.9731 211.573,45.9731 211.5,47.5C 210.094,47.0269 209.427,46.0269 209.5,44.5 Z"/></g>
<g><path style="opacity:0.753" fill="#8b8b8b" d="M 274.5,45.5 C 274.573,47.0269 273.906,48.0269 272.5,48.5C 272.427,46.9731 273.094,45.9731 274.5,45.5 Z"/></g>
<g><path style="opacity:0.702" fill="#7c7c7c" d="M 272.5,48.5 C 272.262,50.4044 271.262,51.7377 269.5,52.5C 269.738,50.5956 270.738,49.2623 272.5,48.5 Z"/></g>
<g><path style="opacity:0.502" fill="#898989" d="M 214.5,51.5 C 215.906,51.9731 216.573,52.9731 216.5,54.5C 215.094,54.0269 214.427,53.0269 214.5,51.5 Z"/></g>
<g><path style="opacity:0.929" fill="#797979" d="M 177.5,56.5 C 179.749,57.0798 181.415,58.4131 182.5,60.5C 180.251,59.9202 178.585,58.5869 177.5,56.5 Z"/></g>
<g><path style="opacity:0.435" fill="#9d9d9d" d="M 418.5,55.5 C 420.027,55.427 421.027,56.0937 421.5,57.5C 419.973,57.573 418.973,56.9063 418.5,55.5 Z"/></g>
<g><path style="opacity:0.725" fill="#9e9e9e" d="M 423.5,59.5 C 425.833,59.8333 427.167,61.1667 427.5,63.5C 425.833,62.5 424.5,61.1667 423.5,59.5 Z"/></g>
<g><path style="opacity:0.957" fill="#757575" d="M 431.5,68.5 C 433.048,68.8212 433.715,69.8212 433.5,71.5C 432.599,70.7095 431.932,69.7095 431.5,68.5 Z"/></g>
<g><path style="opacity:0.925" fill="#787878" d="M 222.5,66.5 C 223.537,67.9303 224.204,69.597 224.5,71.5C 222.787,70.3646 222.12,68.698 222.5,66.5 Z"/></g>
<g><path style="opacity:0.973" fill="#5f5f5f" d="M 261.5,69.5 C 261.59,72.1522 260.924,74.4855 259.5,76.5C 259.41,73.8478 260.076,71.5145 261.5,69.5 Z"/></g>
<g><path style="opacity:0.686" fill="#757575" d="M 18.5,70.5 C 18.5905,73.1522 17.9238,75.4855 16.5,77.5C 16.4095,74.8478 17.0762,72.5145 18.5,70.5 Z"/></g>
<g><path style="opacity:0.655" fill="#7c7c7c" d="M 466.5,70.5 C 467.924,72.5145 468.59,74.8478 468.5,77.5C 467.076,75.4855 466.41,73.1522 466.5,70.5 Z"/></g>
<g><path style="opacity:0.643" fill="#848484" d="M 53.5,180.5 C 55.5869,181.585 56.9202,183.251 57.5,185.5C 55.4131,184.415 54.0798,182.749 53.5,180.5 Z"/></g>
<g><path style="opacity:0.655" fill="#848484" d="M 431.5,180.5 C 430.92,182.749 429.587,184.415 427.5,185.5C 428.08,183.251 429.413,181.585 431.5,180.5 Z"/></g>
<g><path style="opacity:0.612" fill="#7f7f7f" d="M 425.5,187.5 C 424.415,189.587 422.749,190.92 420.5,191.5C 421.585,189.413 423.251,188.08 425.5,187.5 Z"/></g>
<g><path style="opacity:0.941" fill="#7b7b7b" d="M 24.5,192.5 C 26.0481,192.821 26.7148,193.821 26.5,195.5C 25.5987,194.71 24.9321,193.71 24.5,192.5 Z"/></g>
<g><path style="opacity:0.808" fill="#808080" d="M 41.5,212.5 C 43.0269,212.427 44.0269,213.094 44.5,214.5C 42.9731,214.573 41.9731,213.906 41.5,212.5 Z"/></g>
<g><path style="opacity:0.522" fill="#878787" d="M 48.5,217.5 C 50.0269,217.427 51.0269,218.094 51.5,219.5C 49.9731,219.573 48.9731,218.906 48.5,217.5 Z"/></g>
<g><path style="opacity:1" fill="#090909" d="M 223.5,265.5 C 223.427,267.027 224.094,268.027 225.5,268.5C 226.222,268.918 226.722,269.584 227,270.5C 227.667,316.5 227.667,362.5 227,408.5C 220.277,441.891 200.444,463.058 167.5,472C 152.033,473.107 136.533,473.607 121,473.5C 107.833,473.333 94.6667,473.167 81.5,473C 79.0796,472.71 76.7463,472.21 74.5,471.5C 72.4855,470.076 70.1522,469.41 67.5,469.5C 49.3469,463.76 35.3469,452.76 25.5,436.5C 25.7148,434.821 25.0481,433.821 23.5,433.5C 18.9682,425.07 16.1349,416.07 15,406.5C 14.3333,380.167 14.3333,353.833 15,327.5C 15.1862,324.964 15.6862,322.631 16.5,320.5C 17.9238,318.485 18.5905,316.152 18.5,313.5C 19.7662,307.64 22.0995,302.307 25.5,297.5C 26.9063,297.027 27.573,296.027 27.5,294.5C 27.7376,292.596 28.7376,291.262 30.5,290.5C 31.9063,290.027 32.573,289.027 32.5,287.5C 34.5,284.833 36.8333,282.5 39.5,280.5C 41.7488,279.92 43.4154,278.587 44.5,276.5C 46.9505,273.723 49.9505,271.723 53.5,270.5C 55.0269,270.573 56.0269,269.906 56.5,268.5C 58.5093,266.935 60.8427,265.935 63.5,265.5C 66.1522,265.59 68.4855,264.924 70.5,263.5C 73.2578,262.239 76.2578,261.406 79.5,261C 125.5,260.333 171.5,260.333 217.5,261C 220.106,261.792 222.106,263.292 223.5,265.5 Z M 190.5,420.5 C 189.094,420.973 188.427,421.973 188.5,423.5C 186.413,424.585 185.08,426.251 184.5,428.5C 183.5,428.833 182.833,429.5 182.5,430.5C 180.596,430.738 179.262,431.738 178.5,433.5C 171.494,438.003 163.827,440.837 155.5,442C 132.5,442.667 109.5,442.667 86.5,442C 76.6667,440.579 68,436.745 60.5,430.5C 59.5,428.833 58.1667,427.5 56.5,426.5C 56.1667,425.5 55.5,424.833 54.5,424.5C 54.573,422.973 53.9063,421.973 52.5,421.5C 52.573,419.973 51.9063,418.973 50.5,418.5C 50.3964,416.297 49.7298,414.297 48.5,412.5C 48.2041,410.597 47.5375,408.93 46.5,407.5C 45.3908,382.183 45.2241,356.85 46,331.5C 49.7156,309.451 62.5489,296.284 84.5,292C 121.832,291.5 159.165,291.333 196.5,291.5C 196.667,328.835 196.5,366.168 196,403.5C 194.86,409.418 193.027,415.085 190.5,420.5 Z"/></g>
<g><path style="opacity:1" fill="#090909" d="M 434.5,271.5 C 435.035,273.446 436.368,274.446 438.5,274.5C 444.129,278.461 449.129,283.127 453.5,288.5C 453.427,290.027 454.094,291.027 455.5,291.5C 455.427,293.027 456.094,294.027 457.5,294.5C 457.427,296.027 458.094,297.027 459.5,297.5C 465.25,306.577 468.75,316.577 470,327.5C 489.5,444 441,492.5 324.5,473C 321.964,472.814 319.631,472.314 317.5,471.5C 315.485,470.076 313.152,469.41 310.5,469.5C 304.64,468.234 299.307,465.9 294.5,462.5C 294.027,461.094 293.027,460.427 291.5,460.5C 289.596,460.262 288.262,459.262 287.5,457.5C 287.027,456.094 286.027,455.427 284.5,455.5C 269.977,443.128 261.143,427.461 258,408.5C 257.333,362.5 257.333,316.5 258,270.5C 259.833,266 263,262.833 267.5,261C 313.833,260.333 360.167,260.333 406.5,261C 416.594,262.64 425.928,266.14 434.5,271.5 Z M 417.5,297.5 C 417.973,298.906 418.973,299.573 420.5,299.5C 421.585,301.587 423.251,302.92 425.5,303.5C 427.115,306.45 429.115,309.116 431.5,311.5C 431.932,312.71 432.599,313.71 433.5,314.5C 436.565,320.084 438.398,326.084 439,332.5C 439.775,357.517 439.608,382.517 438.5,407.5C 437.463,408.93 436.796,410.597 436.5,412.5C 435.16,415.529 433.827,418.529 432.5,421.5C 431.094,421.973 430.427,422.973 430.5,424.5C 429.5,424.833 428.833,425.5 428.5,426.5C 425.833,428.5 423.5,430.833 421.5,433.5C 419.973,433.427 418.973,434.094 418.5,435.5C 416.517,436.471 414.517,437.471 412.5,438.5C 409.603,439.129 406.936,440.129 404.5,441.5C 379.183,442.609 353.85,442.776 328.5,442C 317.678,440.421 308.344,435.921 300.5,428.5C 299.92,426.251 298.587,424.585 296.5,423.5C 296.573,421.973 295.906,420.973 294.5,420.5C 291.973,415.085 290.14,409.418 289,403.5C 288.5,366.168 288.333,328.835 288.5,291.5C 325.835,291.333 363.168,291.5 400.5,292C 406.418,293.14 412.085,294.973 417.5,297.5 Z"/></g>
<g><path style="opacity:0.945" fill="#5b5b5b" d="M 70.5,263.5 C 68.4855,264.924 66.1522,265.59 63.5,265.5C 65.5145,264.076 67.8478,263.41 70.5,263.5 Z"/></g>
<g><path style="opacity:0.494" fill="#929292" d="M 223.5,265.5 C 224.906,265.973 225.573,266.973 225.5,268.5C 224.094,268.027 223.427,267.027 223.5,265.5 Z"/></g>
<g><path style="opacity:0.831" fill="#787878" d="M 56.5,268.5 C 56.0269,269.906 55.0269,270.573 53.5,270.5C 53.9731,269.094 54.9731,268.427 56.5,268.5 Z"/></g>
<g><path style="opacity:0.929" fill="#858585" d="M 434.5,271.5 C 436.23,272.026 437.564,273.026 438.5,274.5C 436.368,274.446 435.035,273.446 434.5,271.5 Z"/></g>
<g><path style="opacity:0.957" fill="#535353" d="M 44.5,276.5 C 43.4154,278.587 41.7488,279.92 39.5,280.5C 40.5846,278.413 42.2512,277.08 44.5,276.5 Z"/></g>
<g><path style="opacity:0.769" fill="#878787" d="M 32.5,287.5 C 32.573,289.027 31.9063,290.027 30.5,290.5C 30.427,288.973 31.0937,287.973 32.5,287.5 Z"/></g>
<g><path style="opacity:0.463" fill="#9e9e9e" d="M 453.5,288.5 C 454.906,288.973 455.573,289.973 455.5,291.5C 454.094,291.027 453.427,290.027 453.5,288.5 Z"/></g>
<g><path style="opacity:0.588" fill="#808080" d="M 455.5,291.5 C 456.906,291.973 457.573,292.973 457.5,294.5C 456.094,294.027 455.427,293.027 455.5,291.5 Z"/></g>
<g><path style="opacity:0.455" fill="#949494" d="M 27.5,294.5 C 27.573,296.027 26.9063,297.027 25.5,297.5C 25.427,295.973 26.0937,294.973 27.5,294.5 Z"/></g>
<g><path style="opacity:0.506" fill="#888888" d="M 457.5,294.5 C 458.906,294.973 459.573,295.973 459.5,297.5C 458.094,297.027 457.427,296.027 457.5,294.5 Z"/></g>
<g><path style="opacity:0.525" fill="#888888" d="M 417.5,297.5 C 419.027,297.427 420.027,298.094 420.5,299.5C 418.973,299.573 417.973,298.906 417.5,297.5 Z"/></g>
<g><path style="opacity:0.902" fill="#828282" d="M 420.5,299.5 C 422.749,300.08 424.415,301.413 425.5,303.5C 423.251,302.92 421.585,301.587 420.5,299.5 Z"/></g>
<g><path style="opacity:0.894" fill="#878787" d="M 431.5,311.5 C 433.048,311.821 433.715,312.821 433.5,314.5C 432.599,313.71 431.932,312.71 431.5,311.5 Z"/></g>
<g><path style="opacity:0.741" fill="#686868" d="M 18.5,313.5 C 18.5905,316.152 17.9238,318.485 16.5,320.5C 16.4095,317.848 17.0762,315.515 18.5,313.5 Z"/></g>
<g><path style="opacity:0.859" fill="#7f7f7f" d="M 46.5,407.5 C 47.5375,408.93 48.2041,410.597 48.5,412.5C 46.7868,411.365 46.1201,409.698 46.5,407.5 Z"/></g>
<g><path style="opacity:0.871" fill="#7d7d7d" d="M 438.5,407.5 C 438.88,409.698 438.213,411.365 436.5,412.5C 436.796,410.597 437.463,408.93 438.5,407.5 Z"/></g>
<g><path style="opacity:0.478" fill="#8b8b8b" d="M 50.5,418.5 C 51.9063,418.973 52.573,419.973 52.5,421.5C 51.0937,421.027 50.427,420.027 50.5,418.5 Z"/></g>
<g><path style="opacity:0.533" fill="#868686" d="M 190.5,420.5 C 190.573,422.027 189.906,423.027 188.5,423.5C 188.427,421.973 189.094,420.973 190.5,420.5 Z"/></g>
<g><path style="opacity:0.514" fill="#878787" d="M 294.5,420.5 C 295.906,420.973 296.573,421.973 296.5,423.5C 295.094,423.027 294.427,422.027 294.5,420.5 Z"/></g>
<g><path style="opacity:0.482" fill="#979797" d="M 52.5,421.5 C 53.9063,421.973 54.573,422.973 54.5,424.5C 53.0937,424.027 52.427,423.027 52.5,421.5 Z"/></g>
<g><path style="opacity:0.498" fill="#959595" d="M 432.5,421.5 C 432.573,423.027 431.906,424.027 430.5,424.5C 430.427,422.973 431.094,421.973 432.5,421.5 Z"/></g>
<g><path style="opacity:0.914" fill="#848484" d="M 296.5,423.5 C 298.587,424.585 299.92,426.251 300.5,428.5C 298.413,427.415 297.08,425.749 296.5,423.5 Z"/></g>
<g><path style="opacity:0.639" fill="#898989" d="M 188.5,423.5 C 187.92,425.749 186.587,427.415 184.5,428.5C 185.08,426.251 186.413,424.585 188.5,423.5 Z"/></g>
<g><path style="opacity:0.749" fill="#9c9c9c" d="M 56.5,426.5 C 58.1667,427.5 59.5,428.833 60.5,430.5C 58.1667,430.167 56.8333,428.833 56.5,426.5 Z"/></g>
<g><path style="opacity:0.671" fill="#7c7c7c" d="M 428.5,426.5 C 427.167,429.833 424.833,432.167 421.5,433.5C 423.5,430.833 425.833,428.5 428.5,426.5 Z"/></g>
<g><path style="opacity:0.655" fill="#868686" d="M 182.5,430.5 C 181.738,432.262 180.404,433.262 178.5,433.5C 179.262,431.738 180.596,430.738 182.5,430.5 Z"/></g>
<g><path style="opacity:0.945" fill="#787878" d="M 23.5,433.5 C 25.0481,433.821 25.7148,434.821 25.5,436.5C 24.5987,435.71 23.9321,434.71 23.5,433.5 Z"/></g>
<g><path style="opacity:0.741" fill="#858585" d="M 421.5,433.5 C 421.027,434.906 420.027,435.573 418.5,435.5C 418.973,434.094 419.973,433.427 421.5,433.5 Z"/></g>
<g><path style="opacity:0.871" fill="#696969" d="M 412.5,438.5 C 410.383,440.655 407.716,441.655 404.5,441.5C 406.936,440.129 409.603,439.129 412.5,438.5 Z"/></g>
<g><path style="opacity:0.533" fill="#8f8f8f" d="M 284.5,455.5 C 286.027,455.427 287.027,456.094 287.5,457.5C 285.973,457.573 284.973,456.906 284.5,455.5 Z"/></g>
<g><path style="opacity:0.439" fill="#989898" d="M 291.5,460.5 C 293.027,460.427 294.027,461.094 294.5,462.5C 292.973,462.573 291.973,461.906 291.5,460.5 Z"/></g>
<g><path style="opacity:0.675" fill="#787878" d="M 67.5,469.5 C 70.1522,469.41 72.4855,470.076 74.5,471.5C 71.8478,471.59 69.5145,470.924 67.5,469.5 Z"/></g>
<g><path style="opacity:0.725" fill="#6b6b6b" d="M 310.5,469.5 C 313.152,469.41 315.485,470.076 317.5,471.5C 314.848,471.59 312.515,470.924 310.5,469.5 Z"/></g>
</svg>
