<?xml version="1.0" encoding="UTF-8"?>
<!DOCTYPE svg PUBLIC "-//W3C//DTD SVG 1.1//EN" "http://www.w3.org/Graphics/SVG/1.1/DTD/svg11.dtd">
<svg xmlns="http://www.w3.org/2000/svg" version="1.1" width="307px" height="215px" style="shape-rendering:geometricPrecision; text-rendering:geometricPrecision; image-rendering:optimizeQuality; fill-rule:evenodd; clip-rule:evenodd" xmlns:xlink="http://www.w3.org/1999/xlink">
<g><path style="opacity:0.32" fill="#bebebe" d="M 94.5,6.5 C 83.5734,3.04315 72.5734,2.70982 61.5,5.5C 66.2708,3.11494 71.4374,2.11494 77,2.5C 83.3633,2.05137 89.1966,3.38471 94.5,6.5 Z"/></g>
<g><path style="opacity:1" fill="#030303" d="M 94.5,6.5 C 95.5137,7.67373 96.847,8.3404 98.5,8.5C 100.153,8.6596 101.486,9.32627 102.5,10.5C 106.119,14.7852 110.119,18.7852 114.5,22.5C 114.427,24.0269 115.094,25.0269 116.5,25.5C 116.462,28.1813 117.129,30.6813 118.5,33C 118.257,33.9021 117.923,34.7354 117.5,35.5C 115.5,38.1667 113.167,40.5 110.5,42.5C 107.677,43.9923 106.01,46.3257 105.5,49.5C 101.53,54.4451 98.8632,60.1118 97.5,66.5C 96.7382,73.4711 96.2382,80.4711 96,87.5C 92.5432,89.4737 89.0432,91.1404 85.5,92.5C 85.1667,92.5 84.8333,92.5 84.5,92.5C 75.9666,92.9631 67.6332,91.9631 59.5,89.5C 58.4863,88.3263 57.153,87.6596 55.5,87.5C 54.5084,87.6716 53.8417,87.3382 53.5,86.5C 52.7377,84.7376 51.4044,83.7376 49.5,83.5C 45.0963,79.1026 41.0963,74.4359 37.5,69.5C 35.964,64.8918 34.6306,60.2251 33.5,55.5C 33.5,50.8333 33.5,46.1667 33.5,41.5C 34.0916,38.8728 34.4249,36.2062 34.5,33.5C 36.2132,32.3646 36.8799,30.698 36.5,28.5C 36.3284,27.5084 36.6618,26.8417 37.5,26.5C 42.1289,20.2034 47.4623,14.5367 53.5,9.5C 55.0269,9.57298 56.0269,8.90632 56.5,7.5C 58.5529,7.59794 60.2196,6.93127 61.5,5.5C 72.5734,2.70982 83.5734,3.04315 94.5,6.5 Z"/></g>
<g><path style="opacity:1" fill="#030303" d="M 246.5,6.5 C 248.819,6.99249 250.819,7.99249 252.5,9.5C 252.973,10.9063 253.973,11.573 255.5,11.5C 255.973,12.9063 256.973,13.573 258.5,13.5C 260.094,16.7642 262.427,19.4309 265.5,21.5C 265.427,23.0269 266.094,24.0269 267.5,24.5C 267.427,26.0269 268.094,27.0269 269.5,27.5C 269.12,29.698 269.787,31.3646 271.5,32.5C 273.16,40.3879 273.827,48.3879 273.5,56.5C 271.52,61.4242 269.52,66.4242 267.5,71.5C 266.094,71.9731 265.427,72.9731 265.5,74.5C 263.413,75.5846 262.08,77.2512 261.5,79.5C 261.5,80.1667 261.167,80.5 260.5,80.5C 258.251,81.0798 256.585,82.4131 255.5,84.5C 253.973,84.427 252.973,85.0937 252.5,86.5C 248.261,87.7958 244.261,89.4625 240.5,91.5C 236.928,92.9027 233.095,93.5693 229,93.5C 226.639,93.4961 224.473,93.1627 222.5,92.5C 220.095,91.2318 217.428,90.5651 214.5,90.5C 213.739,89.6091 212.739,88.9424 211.5,88.5C 211.517,76.7258 209.35,65.3924 205,54.5C 204.051,52.9069 202.885,51.5736 201.5,50.5C 201.573,48.9731 200.906,47.9731 199.5,47.5C 199.573,45.9731 198.906,44.9731 197.5,44.5C 195.167,40.1667 191.833,36.8333 187.5,34.5C 188.15,32.5648 188.483,30.5648 188.5,28.5C 188.328,27.5084 188.662,26.8417 189.5,26.5C 193.096,21.5641 197.096,16.8974 201.5,12.5C 203.853,11.6597 205.853,10.3264 207.5,8.5C 209.153,8.3404 210.486,7.67373 211.5,6.5C 217.408,5.07095 223.408,4.07095 229.5,3.5C 235.282,3.96342 240.948,4.96342 246.5,6.5 Z"/></g>
<g><path style="opacity:0.357" fill="#bababa" d="M 246.5,6.5 C 240.948,4.96342 235.282,3.96342 229.5,3.5C 223.408,4.07095 217.408,5.07095 211.5,6.5C 216.844,3.59433 222.677,2.261 229,2.5C 235.323,2.261 241.156,3.59433 246.5,6.5 Z"/></g>
<g><path style="opacity:0.153" fill="#dcdcdc" d="M 61.5,5.5 C 60.2196,6.93127 58.5529,7.59794 56.5,7.5C 57.7804,6.06873 59.4471,5.40206 61.5,5.5 Z"/></g>
<g><path style="opacity:0.165" fill="#cdcdcd" d="M 94.5,6.5 C 96.3797,6.22911 97.713,6.89578 98.5,8.5C 96.847,8.3404 95.5137,7.67373 94.5,6.5 Z"/></g>
<g><path style="opacity:0.522" fill="#c5c5c5" d="M 211.5,6.5 C 210.486,7.67373 209.153,8.3404 207.5,8.5C 208.287,6.89578 209.62,6.22911 211.5,6.5 Z"/></g>
<g><path style="opacity:0.545" fill="#c6c6c6" d="M 56.5,7.5 C 56.0269,8.90632 55.0269,9.57298 53.5,9.5C 53.9731,8.09368 54.9731,7.42702 56.5,7.5 Z"/></g>
<g><path style="opacity:0.235" fill="#c1c1c1" d="M 207.5,8.5 C 205.853,10.3264 203.853,11.6597 201.5,12.5C 202.802,10.1782 204.802,8.8449 207.5,8.5 Z"/></g>
<g><path style="opacity:0.031" fill="#d5d5d5" d="M 252.5,9.5 C 254.027,9.42702 255.027,10.0937 255.5,11.5C 253.973,11.573 252.973,10.9063 252.5,9.5 Z"/></g>
<g><path style="opacity:0.043" fill="#bcbcbc" d="M 102.5,10.5 C 107.521,13.5213 111.521,17.5213 114.5,22.5C 110.119,18.7852 106.119,14.7852 102.5,10.5 Z"/></g>
<g><path style="opacity:0.024" fill="#dcdcdc" d="M 255.5,11.5 C 257.027,11.427 258.027,12.0937 258.5,13.5C 256.973,13.573 255.973,12.9063 255.5,11.5 Z"/></g>
<g><path style="opacity:0.643" fill="#b2b2b2" d="M 258.5,13.5 C 261.573,15.5691 263.906,18.2358 265.5,21.5C 262.427,19.4309 260.094,16.7642 258.5,13.5 Z"/></g>
<g><path style="opacity:0.576" fill="#bababa" d="M 53.5,9.5 C 47.4623,14.5367 42.1289,20.2034 37.5,26.5C 40.7762,18.8907 46.1095,13.224 53.5,9.5 Z"/></g>
<g><path style="opacity:0.522" fill="#bfbfbf" d="M 201.5,12.5 C 197.096,16.8974 193.096,21.5641 189.5,26.5C 191.716,20.2852 195.716,15.6185 201.5,12.5 Z"/></g>
<g><path style="opacity:0.349" fill="#bebebe" d="M 265.5,21.5 C 266.906,21.9731 267.573,22.9731 267.5,24.5C 266.094,24.0269 265.427,23.0269 265.5,21.5 Z"/></g>
<g><path style="opacity:0.239" fill="#dbdbdb" d="M 114.5,22.5 C 115.906,22.9731 116.573,23.9731 116.5,25.5C 115.094,25.0269 114.427,24.0269 114.5,22.5 Z"/></g>
<g><path style="opacity:0.169" fill="#d6d6d6" d="M 267.5,24.5 C 268.906,24.9731 269.573,25.9731 269.5,27.5C 268.094,27.0269 267.427,26.0269 267.5,24.5 Z"/></g>
<g><path style="opacity:0.776" fill="#a1a1a1" d="M 269.5,27.5 C 270.931,28.7804 271.598,30.4471 271.5,32.5C 269.787,31.3646 269.12,29.698 269.5,27.5 Z"/></g>
<g><path style="opacity:0.843" fill="#939393" d="M 36.5,28.5 C 36.8799,30.698 36.2132,32.3646 34.5,33.5C 34.4021,31.4471 35.0687,29.7804 36.5,28.5 Z"/></g>
<g><path style="opacity:0.506" fill="#b1b1b1" d="M 116.5,25.5 C 118.201,27.7315 119.534,30.2315 120.5,33C 119.922,34.417 118.922,35.2504 117.5,35.5C 117.923,34.7354 118.257,33.9021 118.5,33C 117.129,30.6813 116.462,28.1813 116.5,25.5 Z"/></g>
<g><path style="opacity:0.114" fill="#c1c1c1" d="M 188.5,28.5 C 188.483,30.5648 188.15,32.5648 187.5,34.5C 186.206,32.32 186.539,30.32 188.5,28.5 Z"/></g>
<g><path style="opacity:0.702" fill="#afafaf" d="M 187.5,34.5 C 191.833,36.8333 195.167,40.1667 197.5,44.5C 193.833,41.5 190.5,38.1667 187.5,34.5 Z"/></g>
<g><path style="opacity:0.643" fill="#aaaaaa" d="M 171.5,38.5 C 162.706,35.7367 153.706,34.9034 144.5,36C 140.553,37.4838 136.553,38.6505 132.5,39.5C 145.497,32.5615 158.497,32.2282 171.5,38.5 Z"/></g>
<g><path style="opacity:1" fill="#020202" d="M 171.5,38.5 C 172.492,38.3284 173.158,38.6618 173.5,39.5C 174.659,41.2503 176.326,42.2503 178.5,42.5C 179.262,44.2624 180.596,45.2624 182.5,45.5C 184.167,46.5 185.5,47.8333 186.5,49.5C 187.08,51.7488 188.413,53.4154 190.5,54.5C 191.338,54.8417 191.672,55.5084 191.5,56.5C 191.427,58.0269 192.094,59.0269 193.5,59.5C 193.402,61.5529 194.069,63.2196 195.5,64.5C 196.404,65.209 196.737,66.209 196.5,67.5C 198.435,79.2218 197.102,90.5552 192.5,101.5C 190.674,103.147 189.34,105.147 188.5,107.5C 188.5,108.167 188.167,108.5 187.5,108.5C 185.167,110.167 183.167,112.167 181.5,114.5C 179.596,114.738 178.262,115.738 177.5,117.5C 170.922,120.895 163.922,122.895 156.5,123.5C 150.804,123.553 145.138,123.22 139.5,122.5C 138.365,120.787 136.698,120.12 134.5,120.5C 133.817,118.824 132.483,118.157 130.5,118.5C 130.027,117.094 129.027,116.427 127.5,116.5C 126.415,114.413 124.749,113.08 122.5,112.5C 122.5,110.5 121.5,109.5 119.5,109.5C 119.262,107.596 118.262,106.262 116.5,105.5C 113.861,100.765 111.694,95.7646 110,90.5C 108.783,84.899 108.283,79.2324 108.5,73.5C 110.074,70.0935 111.074,66.4268 111.5,62.5C 112.674,61.4863 113.34,60.153 113.5,58.5C 115.25,57.3406 116.25,55.674 116.5,53.5C 121.563,48.4317 126.896,43.765 132.5,39.5C 136.553,38.6505 140.553,37.4838 144.5,36C 153.706,34.9034 162.706,35.7367 171.5,38.5 Z"/></g>
<g><path style="opacity:0.42" fill="#b9b9b9" d="M 34.5,33.5 C 34.4249,36.2062 34.0916,38.8728 33.5,41.5C 33.1667,41.5 32.8333,41.5 32.5,41.5C 32.2938,38.5049 32.9605,35.8383 34.5,33.5 Z"/></g>
<g><path style="opacity:0.322" fill="#bababa" d="M 173.5,39.5 C 175.674,39.7497 177.341,40.7497 178.5,42.5C 176.326,42.2503 174.659,41.2503 173.5,39.5 Z"/></g>
<g><path style="opacity:0.075" fill="#c5c5c5" d="M 178.5,42.5 C 180.404,42.7376 181.738,43.7376 182.5,45.5C 180.596,45.2624 179.262,44.2624 178.5,42.5 Z"/></g>
<g><path style="opacity:0.396" fill="#b0b0b0" d="M 132.5,39.5 C 126.896,43.765 121.563,48.4317 116.5,53.5C 120.276,47.0572 125.61,42.3905 132.5,39.5 Z"/></g>
<g><path style="opacity:0.122" fill="#cecece" d="M 110.5,42.5 C 109.214,45.117 107.547,47.4504 105.5,49.5C 106.01,46.3257 107.677,43.9923 110.5,42.5 Z"/></g>
<g><path style="opacity:0.039" fill="#dedede" d="M 197.5,44.5 C 198.906,44.9731 199.573,45.9731 199.5,47.5C 198.094,47.0269 197.427,46.0269 197.5,44.5 Z"/></g>
<g><path style="opacity:0.876" fill="#7e7e7e" d="M 32.5,41.5 C 32.8333,41.5 33.1667,41.5 33.5,41.5C 33.5,46.1667 33.5,50.8333 33.5,55.5C 33.1667,55.5 32.8333,55.5 32.5,55.5C 31.2027,50.7331 31.2027,46.0665 32.5,41.5 Z"/></g>
<g><path style="opacity:0.267" fill="#cccccc" d="M 271.5,32.5 C 272.776,34.5625 273.61,36.8958 274,39.5C 274.818,45.3487 274.652,51.0154 273.5,56.5C 273.827,48.3879 273.16,40.3879 271.5,32.5 Z"/></g>
<g><path style="opacity:0.118" fill="#e3e3e3" d="M 199.5,47.5 C 200.906,47.9731 201.573,48.9731 201.5,50.5C 200.094,50.0269 199.427,49.0269 199.5,47.5 Z"/></g>
<g><path style="opacity:0.741" fill="#a4a4a4" d="M 186.5,49.5 C 188.587,50.5846 189.92,52.2512 190.5,54.5C 188.413,53.4154 187.08,51.7488 186.5,49.5 Z"/></g>
<g><path style="opacity:0.18" fill="#bcbcbc" d="M 201.5,50.5 C 202.885,51.5736 204.051,52.9069 205,54.5C 209.35,65.3924 211.517,76.7258 211.5,88.5C 212.739,88.9424 213.739,89.6091 214.5,90.5C 212.418,90.528 210.584,89.8613 209,88.5C 210.017,75.0844 207.517,62.4177 201.5,50.5 Z"/></g>
<g><path style="opacity:0.314" fill="#c0c0c0" d="M 116.5,53.5 C 116.25,55.674 115.25,57.3406 113.5,58.5C 113.75,56.326 114.75,54.6594 116.5,53.5 Z"/></g>
<g><path style="opacity:0.263" fill="#d0d0d0" d="M 105.5,49.5 C 99.2423,61.6963 96.409,74.6963 97,88.5C 93.5776,90.919 89.7443,92.2523 85.5,92.5C 89.0432,91.1404 92.5432,89.4737 96,87.5C 96.2382,80.4711 96.7382,73.4711 97.5,66.5C 98.8632,60.1118 101.53,54.4451 105.5,49.5 Z"/></g>
<g><path style="opacity:0.212" fill="#cdcdcd" d="M 191.5,56.5 C 192.906,56.9731 193.573,57.9731 193.5,59.5C 192.094,59.0269 191.427,58.0269 191.5,56.5 Z"/></g>
<g><path style="opacity:0.216" fill="#cccccc" d="M 32.5,55.5 C 32.8333,55.5 33.1667,55.5 33.5,55.5C 34.6306,60.2251 35.964,64.8918 37.5,69.5C 34.3214,65.498 32.6547,60.8313 32.5,55.5 Z"/></g>
<g><path style="opacity:0.122" fill="#d9d9d9" d="M 113.5,58.5 C 113.34,60.153 112.674,61.4863 111.5,62.5C 111.229,60.6203 111.896,59.287 113.5,58.5 Z"/></g>
<g><path style="opacity:0.122" fill="#dedede" d="M 193.5,59.5 C 194.931,60.7804 195.598,62.4471 195.5,64.5C 194.069,63.2196 193.402,61.5529 193.5,59.5 Z"/></g>
<g><path style="opacity:0.749" fill="#a8a8a8" d="M 111.5,62.5 C 111.074,66.4268 110.074,70.0935 108.5,73.5C 108.432,69.4296 109.432,65.763 111.5,62.5 Z"/></g>
<g><path style="opacity:0.184" fill="#d2d2d2" d="M 273.5,56.5 C 273.044,62.2197 271.044,67.2197 267.5,71.5C 269.52,66.4242 271.52,61.4242 273.5,56.5 Z"/></g>
<g><path style="opacity:0.075" fill="#d5d5d5" d="M 267.5,71.5 C 267.573,73.0269 266.906,74.0269 265.5,74.5C 265.427,72.9731 266.094,71.9731 267.5,71.5 Z"/></g>
<g><path style="opacity:0.012" fill="#d0d0d0" d="M 37.5,69.5 C 41.0963,74.4359 45.0963,79.1026 49.5,83.5C 43.7163,80.3815 39.7163,75.7148 37.5,69.5 Z"/></g>
<g><path style="opacity:0.118" fill="#cecece" d="M 265.5,74.5 C 264.92,76.7488 263.587,78.4154 261.5,79.5C 262.08,77.2512 263.413,75.5846 265.5,74.5 Z"/></g>
<g><path style="opacity:0.396" fill="#c5c5c5" d="M 196.5,67.5 C 197.29,68.6085 197.79,69.9419 198,71.5C 198.667,77.1667 198.667,82.8333 198,88.5C 197.205,93.4064 195.372,97.7397 192.5,101.5C 197.102,90.5552 198.435,79.2218 196.5,67.5 Z"/></g>
<g><path style="opacity:0.11" fill="#d7d7d7" d="M 260.5,80.5 C 259.415,82.5869 257.749,83.9202 255.5,84.5C 256.585,82.4131 258.251,81.0798 260.5,80.5 Z"/></g>
<g><path style="opacity:0.478" fill="#c2c2c2" d="M 49.5,83.5 C 51.4044,83.7376 52.7377,84.7376 53.5,86.5C 51.5956,86.2624 50.2623,85.2624 49.5,83.5 Z"/></g>
<g><path style="opacity:0.075" fill="#e0e0e0" d="M 255.5,84.5 C 255.027,85.9063 254.027,86.573 252.5,86.5C 252.973,85.0937 253.973,84.427 255.5,84.5 Z"/></g>
<g><path style="opacity:0.169" fill="#d3d3d3" d="M 252.5,86.5 C 251.942,87.7899 250.942,88.6232 249.5,89C 246.647,90.4301 243.647,91.2634 240.5,91.5C 244.261,89.4625 248.261,87.7958 252.5,86.5 Z"/></g>
<g><path style="opacity:0.141" fill="#dbdbdb" d="M 55.5,87.5 C 57.153,87.6596 58.4863,88.3263 59.5,89.5C 57.6203,89.7709 56.287,89.1042 55.5,87.5 Z"/></g>
<g><path style="opacity:0.212" fill="#cdcdcd" d="M 108.5,73.5 C 108.283,79.2324 108.783,84.899 110,90.5C 111.694,95.7646 113.861,100.765 116.5,105.5C 112.728,101.629 110.228,96.9619 109,91.5C 107.406,85.3794 107.239,79.3794 108.5,73.5 Z"/></g>
<g><path style="opacity:0.749" fill="#c1c1c1" d="M 59.5,89.5 C 67.6332,91.9631 75.9666,92.9631 84.5,92.5C 79.6842,93.6497 74.6842,93.8163 69.5,93C 65.8368,92.4283 62.5035,91.2617 59.5,89.5 Z"/></g>
<g><path style="opacity:0.6" fill="#bababa" d="M 214.5,90.5 C 217.428,90.5651 220.095,91.2318 222.5,92.5C 219.505,92.7062 216.838,92.0395 214.5,90.5 Z"/></g>
<g><path style="opacity:0.024" fill="#c7c7c7" d="M 247.5,106.5 C 236.523,105.649 225.523,105.316 214.5,105.5C 225.589,102.649 236.589,102.982 247.5,106.5 Z"/></g>
<g><path style="opacity:1" fill="#020202" d="M 62.5,105.5 C 71.5062,105.334 80.5062,105.5 89.5,106C 96.0894,106.695 102.089,108.862 107.5,112.5C 110.5,117.5 114.5,121.5 119.5,124.5C 120.479,126.145 121.812,127.479 123.5,128.5C 118.454,130.684 113.787,133.351 109.5,136.5C 105.951,137.723 102.951,139.723 100.5,142.5C 98.2512,143.08 96.5846,144.413 95.5,146.5C 95.5,147.167 95.1667,147.5 94.5,147.5C 91.8333,148.167 90.1667,149.833 89.5,152.5C 89.1667,153.5 88.5,154.167 87.5,154.5C 85.4131,155.585 84.0798,157.251 83.5,159.5C 81.7376,160.262 80.7376,161.596 80.5,163.5C 78.7497,164.659 77.7497,166.326 77.5,168.5C 74.7396,171.683 72.7396,175.349 71.5,179.5C 48.5,179.5 25.5,179.5 2.5,179.5C 2.5,174.833 2.5,170.167 2.5,165.5C 2.5,165.167 2.5,164.833 2.5,164.5C 3.92381,162.485 4.59047,160.152 4.5,157.5C 5.93127,156.22 6.59794,154.553 6.5,152.5C 7.93127,151.22 8.59794,149.553 8.5,147.5C 8.6596,145.847 9.32627,144.514 10.5,143.5C 11.9063,143.027 12.573,142.027 12.5,140.5C 13.9063,140.027 14.573,139.027 14.5,137.5C 20.1388,131.526 25.8055,125.526 31.5,119.5C 35.0246,118.241 38.0246,116.241 40.5,113.5C 43.9433,112.941 46.9433,111.607 49.5,109.5C 54.1646,108.943 58.4979,107.61 62.5,105.5 Z"/></g>
<g><path style="opacity:0.082" fill="#d1d1d1" d="M 192.5,101.5 C 192.155,104.198 190.822,106.198 188.5,107.5C 189.34,105.147 190.674,103.147 192.5,101.5 Z"/></g>
<g><path style="opacity:1" fill="#020202" d="M 214.5,105.5 C 225.523,105.316 236.523,105.649 247.5,106.5C 254.505,109.286 261.505,112.286 268.5,115.5C 269.492,115.328 270.158,115.662 270.5,116.5C 270.973,117.906 271.973,118.573 273.5,118.5C 274.539,120.531 276.205,121.864 278.5,122.5C 278.5,124.5 279.5,125.5 281.5,125.5C 283.167,126.5 284.5,127.833 285.5,129.5C 286.08,131.749 287.413,133.415 289.5,134.5C 289.738,136.404 290.738,137.738 292.5,138.5C 292.427,140.027 293.094,141.027 294.5,141.5C 295.338,141.842 295.672,142.508 295.5,143.5C 295.75,145.674 296.75,147.341 298.5,148.5C 299.404,149.209 299.737,150.209 299.5,151.5C 299.12,153.698 299.787,155.365 301.5,156.5C 301.171,159.228 301.837,161.562 303.5,163.5C 304.098,168.813 304.431,174.146 304.5,179.5C 281.167,179.5 257.833,179.5 234.5,179.5C 234.771,177.62 234.104,176.287 232.5,175.5C 230.992,173.819 229.992,171.819 229.5,169.5C 229.25,167.326 228.25,165.659 226.5,164.5C 226.573,162.973 225.906,161.973 224.5,161.5C 223.864,159.205 222.531,157.539 220.5,156.5C 217.5,151.5 213.5,147.5 208.5,144.5C 207.738,142.738 206.404,141.738 204.5,141.5C 204.027,140.094 203.027,139.427 201.5,139.5C 201.027,138.094 200.027,137.427 198.5,137.5C 197.341,135.75 195.674,134.75 193.5,134.5C 190.918,132.258 187.918,130.924 184.5,130.5C 183.167,129.167 183.167,127.833 184.5,126.5C 191.5,122.833 196.833,117.5 200.5,110.5C 204.149,109.733 207.482,108.4 210.5,106.5C 211.568,105.566 212.901,105.232 214.5,105.5 Z"/></g>
<g><path style="opacity:0.345" fill="#c0c0c0" d="M 107.5,112.5 C 102.089,108.862 96.0894,106.695 89.5,106C 80.5062,105.5 71.5062,105.334 62.5,105.5C 77.5471,101.945 92.2138,103.445 106.5,110C 107.252,110.671 107.586,111.504 107.5,112.5 Z"/></g>
<g><path style="opacity:0.039" fill="#cecece" d="M 116.5,105.5 C 118.262,106.262 119.262,107.596 119.5,109.5C 117.738,108.738 116.738,107.404 116.5,105.5 Z"/></g>
<g><path style="opacity:0.02" fill="#c7c7c7" d="M 247.5,106.5 C 255.321,107.767 262.321,110.767 268.5,115.5C 261.505,112.286 254.505,109.286 247.5,106.5 Z"/></g>
<g><path style="opacity:0.745" fill="#a7a7a7" d="M 210.5,106.5 C 207.482,108.4 204.149,109.733 200.5,110.5C 203.192,107.819 206.525,106.486 210.5,106.5 Z"/></g>
<g><path style="opacity:0.741" fill="#a9a9a9" d="M 62.5,105.5 C 58.4979,107.61 54.1646,108.943 49.5,109.5C 53.5021,107.39 57.8354,106.057 62.5,105.5 Z"/></g>
<g><path style="opacity:0.694" fill="#a4a4a4" d="M 119.5,109.5 C 121.5,109.5 122.5,110.5 122.5,112.5C 121.167,111.833 120.167,110.833 119.5,109.5 Z"/></g>
<g><path style="opacity:0.239" fill="#c0c0c0" d="M 49.5,109.5 C 46.9433,111.607 43.9433,112.941 40.5,113.5C 43.0878,111.375 46.0878,110.042 49.5,109.5 Z"/></g>
<g><path style="opacity:0.647" fill="#b8b8b8" d="M 122.5,112.5 C 124.749,113.08 126.415,114.413 127.5,116.5C 125.251,115.92 123.585,114.587 122.5,112.5 Z"/></g>
<g><path style="opacity:0.035" fill="#e5e5e5" d="M 187.5,108.5 C 186.5,111.5 184.5,113.5 181.5,114.5C 183.167,112.167 185.167,110.167 187.5,108.5 Z"/></g>
<g><path style="opacity:0.561" fill="#bababa" d="M 40.5,113.5 C 38.0246,116.241 35.0246,118.241 31.5,119.5C 33.9754,116.759 36.9754,114.759 40.5,113.5 Z"/></g>
<g><path style="opacity:0.439" fill="#d4d4d4" d="M 107.5,112.5 C 111.833,116.167 115.833,120.167 119.5,124.5C 114.5,121.5 110.5,117.5 107.5,112.5 Z"/></g>
<g><path style="opacity:0.129" fill="#d3d3d3" d="M 181.5,114.5 C 180.738,116.262 179.404,117.262 177.5,117.5C 178.262,115.738 179.596,114.738 181.5,114.5 Z"/></g>
<g><path style="opacity:0.008" fill="#e4e4e4" d="M 270.5,116.5 C 272.027,116.427 273.027,117.094 273.5,118.5C 271.973,118.573 270.973,117.906 270.5,116.5 Z"/></g>
<g><path style="opacity:0.306" fill="#cbcbcb" d="M 127.5,116.5 C 129.027,116.427 130.027,117.094 130.5,118.5C 128.973,118.573 127.973,117.906 127.5,116.5 Z"/></g>
<g><path style="opacity:0.914" fill="#727272" d="M 130.5,118.5 C 132.483,118.157 133.817,118.824 134.5,120.5C 132.847,120.34 131.514,119.674 130.5,118.5 Z"/></g>
<g><path style="opacity:0.008" fill="#bfbfbf" d="M 273.5,118.5 C 275.754,119.124 277.421,120.457 278.5,122.5C 276.205,121.864 274.539,120.531 273.5,118.5 Z"/></g>
<g><path style="opacity:0.855" fill="#8e8e8e" d="M 134.5,120.5 C 136.698,120.12 138.365,120.787 139.5,122.5C 137.447,122.598 135.78,121.931 134.5,120.5 Z"/></g>
<g><path style="opacity:0.624" fill="#b0b0b0" d="M 200.5,110.5 C 196.833,117.5 191.5,122.833 184.5,126.5C 190.167,121.5 195.5,116.167 200.5,110.5 Z"/></g>
<g><path style="opacity:0.118" fill="#d6d6d6" d="M 177.5,117.5 C 174.68,120.081 171.346,121.914 167.5,123C 161.432,124.972 155.432,125.472 149.5,124.5C 152.059,124.802 154.393,124.468 156.5,123.5C 163.922,122.895 170.922,120.895 177.5,117.5 Z"/></g>
<g><path style="opacity:0.659" fill="#a8a8a8" d="M 31.5,119.5 C 25.8055,125.526 20.1388,131.526 14.5,137.5C 18.7869,130.213 24.4536,124.213 31.5,119.5 Z"/></g>
<g><path style="opacity:0.298" fill="#a8a8a8" d="M 139.5,122.5 C 145.138,123.22 150.804,123.553 156.5,123.5C 154.393,124.468 152.059,124.802 149.5,124.5C 145.84,124.841 142.507,124.175 139.5,122.5 Z"/></g>
<g><path style="opacity:0.737" fill="#949494" d="M 278.5,122.5 C 279.833,123.167 280.833,124.167 281.5,125.5C 279.5,125.5 278.5,124.5 278.5,122.5 Z"/></g>
<g><path style="opacity:0.227" fill="#cfcfcf" d="M 119.5,124.5 C 121.255,125.072 122.922,125.906 124.5,127C 125.451,127.718 125.617,128.551 125,129.5C 119.886,131.974 114.72,134.307 109.5,136.5C 113.787,133.351 118.454,130.684 123.5,128.5C 121.812,127.479 120.479,126.145 119.5,124.5 Z"/></g>
<g><path style="opacity:0.6" fill="#b4b4b4" d="M 184.5,126.5 C 183.167,127.833 183.167,129.167 184.5,130.5C 180.5,129.167 180.5,127.833 184.5,126.5 Z"/></g>
<g><path style="opacity:0.608" fill="#a6a6a6" d="M 285.5,129.5 C 287.587,130.585 288.92,132.251 289.5,134.5C 287.413,133.415 286.08,131.749 285.5,129.5 Z"/></g>
<g><path style="opacity:0.184" fill="#c7c7c7" d="M 184.5,130.5 C 187.918,130.924 190.918,132.258 193.5,134.5C 190.088,133.958 187.088,132.625 184.5,130.5 Z"/></g>
<g><path style="opacity:0.212" fill="#d0d0d0" d="M 193.5,134.5 C 195.674,134.75 197.341,135.75 198.5,137.5C 196.326,137.25 194.659,136.25 193.5,134.5 Z"/></g>
<g><path style="opacity:0.553" fill="#a5a5a5" d="M 289.5,134.5 C 291.262,135.262 292.262,136.596 292.5,138.5C 290.738,137.738 289.738,136.404 289.5,134.5 Z"/></g>
<g><path style="opacity:0.216" fill="#d9d9d9" d="M 109.5,136.5 C 107.025,139.241 104.025,141.241 100.5,142.5C 102.951,139.723 105.951,137.723 109.5,136.5 Z"/></g>
<g><path style="opacity:1" fill="#010101" d="M 193.5,147.5 C 193.973,148.906 194.973,149.573 196.5,149.5C 197.262,151.262 198.596,152.262 200.5,152.5C 203.833,156.5 207.5,160.167 211.5,163.5C 212.08,165.749 213.413,167.415 215.5,168.5C 215.427,170.027 216.094,171.027 217.5,171.5C 218.079,174.331 219.412,176.664 221.5,178.5C 221.182,181.481 222.182,183.815 224.5,185.5C 224.85,190.54 226.184,195.206 228.5,199.5C 229.089,203.971 228.423,207.971 226.5,211.5C 177.336,210.501 128.003,210.168 78.5,210.5C 78.5,208.833 78.5,207.167 78.5,205.5C 78.5,202.5 78.5,199.5 78.5,196.5C 80.7889,191.744 82.4556,186.744 83.5,181.5C 85.0075,179.819 86.0075,177.819 86.5,175.5C 88.2503,174.341 89.2503,172.674 89.5,170.5C 92.5558,168.051 94.8892,165.051 96.5,161.5C 102.525,156.47 108.525,151.47 114.5,146.5C 118.151,145.341 121.485,143.674 124.5,141.5C 129.177,140.92 133.51,139.587 137.5,137.5C 147.866,136.122 158.199,136.289 168.5,138C 177.119,140.483 185.452,143.65 193.5,147.5 Z"/></g>
<g><path style="opacity:0.663" fill="#acacac" d="M 137.5,137.5 C 133.51,139.587 129.177,140.92 124.5,141.5C 128.378,138.987 132.711,137.654 137.5,137.5 Z"/></g>
<g><path style="opacity:0.212" fill="#e0e0e0" d="M 198.5,137.5 C 200.027,137.427 201.027,138.094 201.5,139.5C 199.973,139.573 198.973,138.906 198.5,137.5 Z"/></g>
<g><path style="opacity:0.369" fill="#bfbfbf" d="M 14.5,137.5 C 14.573,139.027 13.9063,140.027 12.5,140.5C 12.427,138.973 13.0937,137.973 14.5,137.5 Z"/></g>
<g><path style="opacity:0.286" fill="#dbdbdb" d="M 201.5,139.5 C 203.027,139.427 204.027,140.094 204.5,141.5C 202.973,141.573 201.973,140.906 201.5,139.5 Z"/></g>
<g><path style="opacity:0.314" fill="#c9c9c9" d="M 292.5,138.5 C 293.906,138.973 294.573,139.973 294.5,141.5C 293.094,141.027 292.427,140.027 292.5,138.5 Z"/></g>
<g><path style="opacity:0.267" fill="#d0d0d0" d="M 12.5,140.5 C 12.573,142.027 11.9063,143.027 10.5,143.5C 10.427,141.973 11.0937,140.973 12.5,140.5 Z"/></g>
<g><path style="opacity:0.325" fill="#c0c0c0" d="M 193.5,147.5 C 185.452,143.65 177.119,140.483 168.5,138C 158.199,136.289 147.866,136.122 137.5,137.5C 152.716,134.114 167.716,135.281 182.5,141C 186.56,142.689 190.227,144.856 193.5,147.5 Z"/></g>
<g><path style="opacity:0.467" fill="#c3c3c3" d="M 204.5,141.5 C 206.404,141.738 207.738,142.738 208.5,144.5C 206.596,144.262 205.262,143.262 204.5,141.5 Z"/></g>
<g><path style="opacity:0.208" fill="#d3d3d3" d="M 124.5,141.5 C 121.485,143.674 118.151,145.341 114.5,146.5C 117.247,143.793 120.58,142.127 124.5,141.5 Z"/></g>
<g><path style="opacity:0.024" fill="#e5e5e5" d="M 100.5,142.5 C 99.4154,144.587 97.7488,145.92 95.5,146.5C 96.5846,144.413 98.2512,143.08 100.5,142.5 Z"/></g>
<g><path style="opacity:0.176" fill="#d2d2d2" d="M 295.5,143.5 C 297.25,144.659 298.25,146.326 298.5,148.5C 296.75,147.341 295.75,145.674 295.5,143.5 Z"/></g>
<g><path style="opacity:0.075" fill="#d3d3d3" d="M 193.5,147.5 C 195.027,147.427 196.027,148.094 196.5,149.5C 194.973,149.573 193.973,148.906 193.5,147.5 Z"/></g>
<g><path style="opacity:0.435" fill="#c4c4c4" d="M 208.5,144.5 C 213.5,147.5 217.5,151.5 220.5,156.5C 216.167,152.833 212.167,148.833 208.5,144.5 Z"/></g>
<g><path style="opacity:0.063" fill="#cacaca" d="M 196.5,149.5 C 198.404,149.738 199.738,150.738 200.5,152.5C 198.596,152.262 197.262,151.262 196.5,149.5 Z"/></g>
<g><path style="opacity:0.157" fill="#d8d8d8" d="M 8.5,147.5 C 8.59794,149.553 7.93127,151.22 6.5,152.5C 6.40206,150.447 7.06873,148.78 8.5,147.5 Z"/></g>
<g><path style="opacity:0.137" fill="#c7c7c7" d="M 94.5,147.5 C 93.1667,149.5 91.5,151.167 89.5,152.5C 90.1667,149.833 91.8333,148.167 94.5,147.5 Z"/></g>
<g><path style="opacity:0.016" fill="#cfcfcf" d="M 200.5,152.5 C 205.167,155.167 208.833,158.833 211.5,163.5C 207.5,160.167 203.833,156.5 200.5,152.5 Z"/></g>
<g><path style="opacity:0.827" fill="#9b9b9b" d="M 299.5,151.5 C 300.931,152.78 301.598,154.447 301.5,156.5C 299.787,155.365 299.12,153.698 299.5,151.5 Z"/></g>
<g><path style="opacity:0.125" fill="#e0e0e0" d="M 6.5,152.5 C 6.59794,154.553 5.93127,156.22 4.5,157.5C 4.40206,155.447 5.06873,153.78 6.5,152.5 Z"/></g>
<g><path style="opacity:0.416" fill="#cdcdcd" d="M 114.5,146.5 C 108.525,151.47 102.525,156.47 96.5,161.5C 97.8823,158.606 99.8823,156.106 102.5,154C 106.052,150.727 110.052,148.227 114.5,146.5 Z"/></g>
<g><path style="opacity:0.094" fill="#d9d9d9" d="M 87.5,154.5 C 86.9202,156.749 85.5869,158.415 83.5,159.5C 84.0798,157.251 85.4131,155.585 87.5,154.5 Z"/></g>
<g><path style="opacity:0.067" fill="#b8b8b8" d="M 220.5,156.5 C 222.531,157.539 223.864,159.205 224.5,161.5C 222.457,160.421 221.124,158.754 220.5,156.5 Z"/></g>
<g><path style="opacity:0.008" fill="#dfdfdf" d="M 83.5,159.5 C 83.2624,161.404 82.2624,162.738 80.5,163.5C 80.7376,161.596 81.7376,160.262 83.5,159.5 Z"/></g>
<g><path style="opacity:0.11" fill="#cbcbcb" d="M 301.5,156.5 C 302.924,158.515 303.59,160.848 303.5,163.5C 301.837,161.562 301.171,159.228 301.5,156.5 Z"/></g>
<g><path style="opacity:0.082" fill="#ececec" d="M 4.5,157.5 C 4.59047,160.152 3.92381,162.485 2.5,164.5C 2.40953,161.848 3.07619,159.515 4.5,157.5 Z"/></g>
<g><path style="opacity:0.769" fill="#a0a0a0" d="M 96.5,161.5 C 94.8892,165.051 92.5558,168.051 89.5,170.5C 91.1108,166.949 93.4442,163.949 96.5,161.5 Z"/></g>
<g><path style="opacity:0.059" fill="#d6d6d6" d="M 224.5,161.5 C 225.906,161.973 226.573,162.973 226.5,164.5C 225.094,164.027 224.427,163.027 224.5,161.5 Z"/></g>
<g><path style="opacity:0.224" fill="#cdcdcd" d="M 80.5,163.5 C 80.2503,165.674 79.2503,167.341 77.5,168.5C 77.7497,166.326 78.7497,164.659 80.5,163.5 Z"/></g>
<g><path style="opacity:0.251" fill="#d0d0d0" d="M 226.5,164.5 C 228.25,165.659 229.25,167.326 229.5,169.5C 227.75,168.341 226.75,166.674 226.5,164.5 Z"/></g>
<g><path style="opacity:0.314" fill="#b7b7b7" d="M 211.5,163.5 C 213.587,164.585 214.92,166.251 215.5,168.5C 213.413,167.415 212.08,165.749 211.5,163.5 Z"/></g>
<g><path style="opacity:0.31" fill="#cbcbcb" d="M 215.5,168.5 C 216.906,168.973 217.573,169.973 217.5,171.5C 216.094,171.027 215.427,170.027 215.5,168.5 Z"/></g>
<g><path style="opacity:0.329" fill="#c6c6c6" d="M 77.5,168.5 C 75.9922,172.849 73.9922,176.849 71.5,180.5C 71.5,180.167 71.5,179.833 71.5,179.5C 72.7396,175.349 74.7396,171.683 77.5,168.5 Z"/></g>
<g><path style="opacity:0.216" fill="#d4d4d4" d="M 89.5,170.5 C 89.2503,172.674 88.2503,174.341 86.5,175.5C 86.7497,173.326 87.7497,171.659 89.5,170.5 Z"/></g>
<g><path style="opacity:0.196" fill="#c9c9c9" d="M 217.5,171.5 C 219.588,173.336 220.921,175.669 221.5,178.5C 219.412,176.664 218.079,174.331 217.5,171.5 Z"/></g>
<g><path style="opacity:0.447" fill="#d8d8d8" d="M 303.5,163.5 C 304.743,167.786 305.743,172.119 306.5,176.5C 306.5,177.5 306.5,178.5 306.5,179.5C 305.833,179.833 305.167,180.167 304.5,180.5C 304.5,180.167 304.5,179.833 304.5,179.5C 304.431,174.146 304.098,168.813 303.5,163.5 Z"/></g>
<g><path style="opacity:0.64" fill="#ababab" d="M 2.5,165.5 C 2.5,170.167 2.5,174.833 2.5,179.5C 25.5,179.5 48.5,179.5 71.5,179.5C 71.5,179.833 71.5,180.167 71.5,180.5C 48.6703,181.663 25.6703,181.83 2.5,181C 1.27988,179.475 0.613218,177.641 0.5,175.5C 0.55036,171.914 1.21703,168.58 2.5,165.5 Z"/></g>
<g><path style="opacity:0.161" fill="#dddddd" d="M 86.5,175.5 C 86.0075,177.819 85.0075,179.819 83.5,181.5C 83.461,178.911 84.461,176.911 86.5,175.5 Z"/></g>
<g><path style="opacity:0.613" fill="#a7a7a7" d="M 232.5,175.5 C 234.104,176.287 234.771,177.62 234.5,179.5C 257.833,179.5 281.167,179.5 304.5,179.5C 304.5,179.833 304.5,180.167 304.5,180.5C 281.67,181.663 258.67,181.83 235.5,181C 233.329,179.826 232.329,177.993 232.5,175.5 Z"/></g>
<g><path style="opacity:0.165" fill="#bebebe" d="M 221.5,178.5 C 223.293,180.426 224.293,182.759 224.5,185.5C 222.182,183.815 221.182,181.481 221.5,178.5 Z"/></g>
<g><path style="opacity:0.871" fill="#a2a2a2" d="M 224.5,185.5 C 226.816,189.794 228.15,194.46 228.5,199.5C 226.184,195.206 224.85,190.54 224.5,185.5 Z"/></g>
<g><path style="opacity:0.639" fill="#b7b7b7" d="M 83.5,181.5 C 82.4556,186.744 80.7889,191.744 78.5,196.5C 78.7976,190.948 80.4643,185.948 83.5,181.5 Z"/></g>
<g><path style="opacity:0.184" fill="#d3d3d3" d="M 78.5,196.5 C 78.5,199.5 78.5,202.5 78.5,205.5C 77.5386,207.265 77.2053,209.265 77.5,211.5C 76.1736,206.421 76.5069,201.421 78.5,196.5 Z"/></g>
<g><path style="opacity:0.919" fill="#191919" d="M 78.5,205.5 C 78.5,207.167 78.5,208.833 78.5,210.5C 128.003,210.168 177.336,210.501 226.5,211.5C 176.833,211.5 127.167,211.5 77.5,211.5C 77.2053,209.265 77.5386,207.265 78.5,205.5 Z"/></g>
<g><path style="opacity:0.186" fill="#e0e0e0" d="M 228.5,199.5 C 229.485,203.634 229.818,207.968 229.5,212.5C 178.664,212.832 127.997,212.499 77.5,211.5C 127.167,211.5 176.833,211.5 226.5,211.5C 228.423,207.971 229.089,203.971 228.5,199.5 Z"/></g>
</svg>
